<?xml version="1.0" encoding="UTF-8" standalone="no"?>
<svg
   xmlns:dc="http://purl.org/dc/elements/1.1/"
   xmlns:cc="http://creativecommons.org/ns#"
   xmlns:rdf="http://www.w3.org/1999/02/22-rdf-syntax-ns#"
   xmlns:svg="http://www.w3.org/2000/svg"
   xmlns="http://www.w3.org/2000/svg"
   xmlns:sodipodi="http://sodipodi.sourceforge.net/DTD/sodipodi-0.dtd"
   xmlns:inkscape="http://www.inkscape.org/namespaces/inkscape"
   version="1.1"
   x="0px"
   y="0px"
   viewBox="0 0 99.999999 100"
   enable-background="new 0 0 99.999 99.999"
   xml:space="preserve"
   id="svg4208"
   inkscape:version="0.91 r13725"
   sodipodi:docname="donut.svg"
   width="100"
   height="100"><metadata
     id="metadata4224"><rdf:RDF><cc:Work
         rdf:about=""><dc:format>image/svg+xml</dc:format><dc:type
           rdf:resource="http://purl.org/dc/dcmitype/StillImage" /><dc:title></dc:title></cc:Work></rdf:RDF></metadata><defs
     id="defs4222" /><sodipodi:namedview
     pagecolor="#ffffff"
     bordercolor="#666666"
     borderopacity="1"
     objecttolerance="10"
     gridtolerance="10"
     guidetolerance="10"
     inkscape:pageopacity="0"
     inkscape:pageshadow="2"
     inkscape:window-width="1892"
     inkscape:window-height="1034"
     id="namedview4220"
     showgrid="false"
     inkscape:zoom="4.7800897"
     inkscape:cx="36.599105"
     inkscape:cy="32.458784"
     inkscape:window-x="12"
     inkscape:window-y="30"
     inkscape:window-maximized="0"
     inkscape:current-layer="svg4208" /><g
     id="g4210"
     transform="scale(1.00001,1)"><path
       d="m 14.646,85.354 c 4.59,4.592 9.938,8.197 15.891,10.717 6.167,2.606 12.716,3.929 19.465,3.929 6.746,0 13.297,-1.322 19.463,-3.929 5.953,-2.52 11.302,-6.125 15.891,-10.717 4.59,-4.588 8.195,-9.935 10.714,-15.891 2.608,-6.171 3.929,-12.715 3.929,-19.464 0,-6.749 -1.322,-13.295 -3.929,-19.463 C 93.551,24.58 89.946,19.233 85.356,14.644 80.767,10.053 75.418,6.449 69.465,3.929 63.299,1.32 56.748,0 50.002,0 43.254,0 36.705,1.321 30.537,3.929 24.583,6.449 19.236,10.054 14.646,14.644 10.055,19.232 6.452,24.58 3.933,30.536 1.322,36.704 0,43.25 0,49.999 c 0,6.749 1.322,13.296 3.933,19.464 2.519,5.956 6.122,11.303 10.713,15.891 z M 50.002,4.715 c 25.01,0 45.286,20.274 45.286,45.284 0,25.012 -20.275,45.284 -45.286,45.284 C 24.99,95.283 4.716,75.011 4.716,49.999 4.716,24.989 24.99,4.715 50.002,4.715 Z"
       id="path4212"
       inkscape:connector-curvature="0"
       style="fill:#010101" /><path
       d="m 11.035,55.136 c 1.297,2.186 3.722,3.423 4.77,5.792 0.927,2.104 0.575,4.439 0.914,6.652 0.499,3.261 1.426,5.459 4.416,7.065 4.137,2.226 7.532,2.047 10.662,6.106 2.303,2.988 3.646,6.615 7.776,7.433 6.225,1.229 12.118,-3.071 18.33,-2.479 6.406,0.612 11.246,0.232 14.839,-6.167 1.372,-2.449 1.988,-5.477 4.34,-7.362 2.019,-1.626 4.462,-1.579 6.619,-2.9 3.565,-2.187 3.926,-5.928 3.96,-9.733 0.015,-1.854 -0.431,-3.886 -0.11,-5.726 0.36,-2.078 1.521,-3.392 2.173,-5.394 1.11,-3.41 0.007,-7 -1.848,-9.958 -1.868,-2.978 -4.7,-4.142 -6.999,-6.491 -2.369,-2.417 -1.675,-4.37 -2.036,-7.513 -0.379,-3.285 -1.655,-5.498 -4.56,-7.149 -3.598,-2.051 -5.717,-0.5 -9.228,-0.622 -3.114,-0.107 -4.563,-2.126 -6.974,-3.632 -2.72,-1.696 -5.679,-2.102 -8.918,-1.603 -3.093,0.479 -5.339,1.985 -7.789,3.792 -3.184,2.352 -4.323,1.915 -8.138,1.768 -3.085,-0.118 -6.35,0.339 -8.416,2.868 -1.736,2.125 -1.268,5.336 -3.323,7.318 -1.917,1.848 -4.767,1.455 -6.578,3.966 -1.884,2.613 -0.919,5.571 -1.476,8.496 -1.141,5.982 -6.347,8.831 -2.406,15.473 z m 68.39,5.486 c -0.411,0.396 -0.939,0.592 -1.469,0.592 -0.558,0 -1.112,-0.218 -1.532,-0.65 l -3.179,-3.311 c -0.812,-0.846 -0.785,-2.188 0.059,-2.999 0.846,-0.812 2.188,-0.786 2.998,0.058 l 3.185,3.312 c 0.81,0.842 0.785,2.188 -0.062,2.998 z m -6.772,-18.933 4.418,-4.435 c 0.828,-0.827 2.17,-0.83 3,-0.002 0.829,0.826 0.833,2.169 0.006,2.998 l -4.421,4.434 c -0.414,0.417 -0.958,0.624 -1.501,0.624 -0.541,0 -1.083,-0.203 -1.497,-0.618 -0.83,-0.828 -0.832,-2.171 -0.005,-3.001 z M 31.347,66.8 c -0.25,0 -0.506,-0.045 -0.752,-0.14 l -5.429,-2.065 c -1.096,-0.417 -1.645,-1.645 -1.229,-2.74 0.416,-1.095 1.643,-1.643 2.738,-1.227 l 5.429,2.067 c 1.095,0.417 1.645,1.643 1.228,2.735 -0.321,0.848 -1.129,1.37 -1.985,1.37 z M 50.002,34.286 c 8.664,0 15.712,7.051 15.712,15.713 0,8.665 -7.05,15.713 -15.712,15.713 -8.666,0 -15.714,-7.048 -15.714,-15.713 0,-8.664 7.048,-15.713 15.714,-15.713 z m -9.662,38.978 -3.162,5.343 c -0.396,0.669 -1.104,1.042 -1.829,1.042 -0.367,0 -0.739,-0.098 -1.078,-0.297 -1.009,-0.596 -1.342,-1.896 -0.745,-2.906 l 3.163,-5.342 c 0.597,-1.007 1.896,-1.343 2.906,-0.744 1.009,0.593 1.341,1.896 0.745,2.904 z m 17.524,5.631 c -0.376,0.731 -1.12,1.152 -1.89,1.152 -0.326,0 -0.659,-0.075 -0.967,-0.235 L 49.029,76.74 c -1.042,-0.534 -1.45,-1.814 -0.917,-2.855 0.535,-1.042 1.816,-1.453 2.857,-0.917 l 5.977,3.071 c 1.041,0.535 1.455,1.814 0.918,2.856 z m 10.191,-12.992 -2.12,4.872 c -0.347,0.799 -1.127,1.276 -1.944,1.276 -0.284,0 -0.571,-0.058 -0.847,-0.178 -1.074,-0.468 -1.565,-1.716 -1.097,-2.792 l 1.758,-4.039 0.361,-0.832 c 0.302,-0.688 0.92,-1.134 1.609,-1.245 0.387,-0.063 0.798,-0.021 1.184,0.147 1.074,0.469 1.567,1.718 1.096,2.791 z M 63.361,26.008 c 0.706,-0.934 2.038,-1.118 2.971,-0.41 l 3.021,2.289 c 0.935,0.708 1.117,2.039 0.408,2.972 -0.415,0.549 -1.051,0.84 -1.691,0.84 -0.447,0 -0.896,-0.141 -1.28,-0.432 l -3.019,-2.288 c -0.936,-0.706 -1.12,-2.037 -0.41,-2.971 z m -16.671,0.074 3.183,-4.596 c 0.667,-0.963 1.986,-1.203 2.95,-0.537 0.965,0.666 1.204,1.989 0.536,2.952 l -3.182,4.597 c -0.41,0.595 -1.073,0.914 -1.745,0.914 -0.416,0 -0.837,-0.123 -1.205,-0.378 -0.964,-0.668 -1.205,-1.988 -0.537,-2.952 z M 30.66,25.589 c 0.939,-0.7 2.269,-0.509 2.97,0.43 l 3.421,4.577 c 0.7,0.938 0.508,2.27 -0.428,2.968 -0.381,0.286 -0.828,0.424 -1.268,0.424 -0.647,0 -1.285,-0.293 -1.701,-0.851 l -3.421,-4.578 c -0.702,-0.938 -0.512,-2.267 0.427,-2.97 z m -8.368,13.163 c 0,-1.173 0.95,-2.121 2.123,-2.121 1.17,0 2.121,0.949 2.121,2.121 l 0,4.54 c 0,1.172 -0.95,2.122 -2.121,2.122 -1.172,0 -2.123,-0.951 -2.123,-2.122 l 0,-4.54 z m -3.249,13.23 5.5,-2.049 c 1.098,-0.411 2.321,0.146 2.729,1.245 0.409,1.099 -0.148,2.321 -1.246,2.729 l -5.5,2.05 c -0.244,0.092 -0.495,0.134 -0.74,0.134 -0.861,0 -1.67,-0.528 -1.988,-1.379 -0.408,-1.098 0.149,-2.321 1.245,-2.73 z"
       id="path4214"
       inkscape:connector-curvature="0"
       style="fill:#010101" /></g></svg>